<?xml version="1.0" encoding="UTF-8" standalone="no"?>
<!-- Created with Inkscape (http://www.inkscape.org/) -->

<svg
   xmlns:dc="http://purl.org/dc/elements/1.1/"
   xmlns:cc="http://creativecommons.org/ns#"
   xmlns:rdf="http://www.w3.org/1999/02/22-rdf-syntax-ns#"
   xmlns:svg="http://www.w3.org/2000/svg"
   xmlns="http://www.w3.org/2000/svg"
   xmlns:sodipodi="http://sodipodi.sourceforge.net/DTD/sodipodi-0.dtd"
   xmlns:inkscape="http://www.inkscape.org/namespaces/inkscape"
   width="210mm"
   height="297mm"
   viewBox="0 0 210 297"
   version="1.1"
   id="svg8"
   inkscape:version="0.92.3 (2405546, 2018-03-11)"
   sodipodi:docname="ss.svg">
  <defs
     id="defs2" />
  <sodipodi:namedview
     id="base"
     pagecolor="#ffffff"
     bordercolor="#666666"
     borderopacity="1.0"
     inkscape:pageopacity="0.0"
     inkscape:pageshadow="2"
     inkscape:zoom="0.49497475"
     inkscape:cx="51.137249"
     inkscape:cy="592.98364"
     inkscape:document-units="mm"
     inkscape:current-layer="layer1"
     showgrid="false"
     inkscape:window-width="1920"
     inkscape:window-height="1017"
     inkscape:window-x="892"
     inkscape:window-y="387"
     inkscape:window-maximized="1" />
  <metadata
     id="metadata5">
    <rdf:RDF>
      <cc:Work
         rdf:about="">
        <dc:format>image/svg+xml</dc:format>
        <dc:type
           rdf:resource="http://purl.org/dc/dcmitype/StillImage" />
        <dc:title></dc:title>
      </cc:Work>
    </rdf:RDF>
  </metadata>
  <g
     inkscape:label="Capa 1"
     inkscape:groupmode="layer"
     id="layer1">
    <path
       style="fill:#1878c3;stroke-width:0.49665594"
       d="m 110.13112,243.7799 c -3.29958,-1.06549 -7.21814,-4.008 -9.16975,-6.88575 -4.821401,-7.10909 -4.102456,-16.18428 1.77042,-22.3497 l 1.97638,-2.07481 -3.93974,-17.87962 -3.939668,-17.87961 -4.626178,-0.0868 c -5.642989,-0.10619 -10.026017,-0.83415 -14.562676,-2.41914 -13.264409,-4.63435 -23.711781,-15.85286 -27.748948,-29.7972 -0.984904,-3.40193 -1.139767,-5.02518 -1.111317,-11.65084 0.02933,-6.92764 0.169528,-8.14548 1.398517,-12.16805 5.232134,-17.12747 19.33245,-28.872406 37.402826,-31.154697 7.596019,-0.959385 16.336854,0.575456 23.872384,4.192736 1.70943,0.820479 3.23118,1.691053 3.38171,1.93467 0.15076,0.243439 0.59441,0.442884 0.98636,0.442884 0.76048,0 3.07907,-2.360602 26.43913,-26.918322 l 14.97576,-15.743562 -0.82944,-1.887743 c -0.56198,-1.279202 -0.82911,-3.248422 -0.82846,-6.109278 9.9e-4,-3.496849 0.22349,-4.705424 1.29644,-7.040157 5.0948,-11.085477 18.89016,-14.138152 27.96887,-6.188998 5.85323,5.124903 7.5444,13.500868 4.23614,20.979861 -1.42855,3.229301 -5.81662,7.31539 -9.31699,8.67566 -3.4796,1.352176 -9.23669,1.516424 -12.42904,0.354307 l -2.10015,-0.7644 -17.76604,18.66566 c -9.77137,10.266112 -18.85965,19.858988 -20.19611,21.317449 l -2.42999,2.6518 1.25925,1.34278 c 1.7651,1.88223 4.5802,6.43437 6.10037,9.86452 3.55639,8.02501 4.60606,17.94754 2.81252,26.58683 -1.12909,5.43874 -4.46492,13.01846 -7.48885,17.01631 -4.37276,5.78109 -11.34323,11.50726 -16.72131,13.73634 -1.48861,0.617 -2.70653,1.40274 -2.70653,1.74614 0,0.34317 1.67623,8.24949 3.72494,17.56918 2.04871,9.31963 3.72491,17.04341 3.72491,17.1639 0,0.12025 0.77384,0.2188 1.71962,0.2188 4.67252,0 11.48701,4.62535 13.93666,9.45948 5.86314,11.57031 -2.18574,25.19043 -15.15966,25.65273 -2.22851,0.0791 -4.60365,-0.15134 -5.91236,-0.57369 z m 9.05559,-8.89317 c 6.21858,-2.59828 6.92157,-12.12639 1.1379,-15.42204 -2.8195,-1.60664 -4.46263,-1.90329 -6.90259,-1.24623 -5.83036,1.56991 -8.41792,7.26435 -5.77856,12.71658 1.92541,3.97733 7.17813,5.77556 11.54325,3.95169 z M 88.158729,150.9216 c 1.754877,-0.90754 2.555295,-2.69778 2.555295,-5.71555 0,-3.24004 -2.159983,-6.38076 -10.036458,-14.59348 l -6.104821,-6.36545 -6.571227,0.15721 -6.571168,0.15721 7.883278,8.4432 7.88322,8.44312 -9.631057,0.13492 c -5.297071,0.0739 -9.631059,0.32556 -9.631059,0.55903 0,0.23348 1.38262,2.46361 3.072501,4.95603 l 3.072502,4.53166 h 11.355196 c 8.856511,0 11.65636,-0.15604 12.723798,-0.70773 z m 27.388131,-7.98377 v -5.71156 h 5.95987 5.95986 v -5.21489 -5.21488 h -5.95986 -5.95987 v -5.95988 -5.95987 h -4.96658 -4.96658 v 5.95987 5.95988 h -5.977229 -5.977238 l 0.141371,5.09076 0.141371,5.0907 5.835686,0.14019 5.835689,0.1402 v 5.69579 5.69579 h 4.96658 4.96658 z M 90.217407,121.8109 c 0,-0.28332 -1.346778,-2.51856 -2.992782,-4.96658 l -2.992723,-4.45083 H 73.790277 c -13.690926,0 -14.365577,0.31325 -14.365577,6.67224 v 3.26086 h 15.396354 c 10.312278,0 15.396353,-0.17011 15.396353,-0.51561 z M 177.60407,53.245701 c 2.82485,-1.587697 4.49466,-4.522874 4.49466,-7.900759 0,-5.189254 -3.75055,-8.939808 -8.9398,-8.939808 -9.1244,0 -12.52705,11.997703 -4.72866,16.672975 2.61989,1.570684 6.54958,1.642425 9.1738,0.167767 z m 16.19302,145.230439 c -1.69487,-0.47632 -4.60622,-2.54332 -5.60914,-3.98278 -2.46285,-3.53487 -2.71297,-7.23937 -0.75015,-11.11013 1.82997,-3.60882 4.45741,-5.42288 8.36799,-5.77748 11.2126,-1.0167 16.05628,13.49881 6.52664,19.55893 -2.09956,1.33517 -6.20518,1.96599 -8.53534,1.31146 z M 10.190709,186.4947 C 3.9184143,183.218 2.362747,175.35983 6.9516718,170.13332 c 4.1971922,-4.78033 11.8474732,-4.78033 16.0446652,0 4.604176,5.24387 3.016422,13.20246 -3.269013,16.38607 -3.528701,1.78737 -6.080593,1.78074 -9.536615,-0.0234 z m 160.075041,-7.12804 c -6.26278,-3.91785 -7.06614,-4.92275 -5.83633,-7.30096 1.17766,-2.27723 2.9929,-3.33747 4.52176,-2.64081 2.43704,1.11038 11.19541,7.04584 11.47603,7.77722 0.70311,1.83224 -1.79148,5.73437 -3.64379,5.69989 -0.49098,-0.0117 -3.42405,-1.60008 -6.51767,-3.53534 z M 34.206174,170.66555 c -0.349028,-0.1402 -1.096239,-1.16077 -1.661021,-2.26786 -0.769151,-1.50763 -0.906474,-2.27726 -0.547299,-3.06594 0.618806,-1.35815 11.04512,-7.74255 12.644254,-7.74255 1.954088,0 4.168332,3.15786 3.653237,5.21007 -0.157796,0.62943 -1.015056,1.58161 -1.904695,2.116 -0.889581,0.5344 -3.498199,2.12179 -5.796854,3.52764 -4.003204,2.44824 -4.980716,2.78836 -6.387798,2.22264 z m 112.456146,-4.25973 c -6.29806,-3.8894 -6.90524,-4.68214 -5.56779,-7.26852 1.17379,-2.26986 2.89288,-3.2639 4.3425,-2.51101 4.11963,2.13946 11.05222,6.85485 11.48969,7.81494 0.8263,1.8136 -1.62258,5.56432 -3.63305,5.56432 -0.44112,0 -3.42547,-1.61983 -6.63135,-3.59973 z M 56.602033,94.389694 c -2.094167,-2.318835 -7.159764,-9.606127 -7.436523,-10.698085 -0.487466,-1.924405 3.236808,-4.978252 5.280529,-4.329589 1.180124,0.374839 8.951948,11.079378 8.951948,12.330305 0,1.372824 -2.839562,3.814845 -4.435881,3.814845 -0.770793,0 -1.784206,-0.47984 -2.360073,-1.117476 z M 41.896755,75.516788 C 37.867506,70.51824 35.088598,66.24303 35.088598,65.042901 c 0,-1.55948 2.725234,-3.804989 4.617846,-3.804989 1.079463,0 1.963413,0.92243 5.2922,5.522383 4.715632,6.516439 4.97573,7.682661 2.142739,9.607769 -1.019514,0.692719 -2.233779,1.259493 -2.698367,1.259493 -0.464589,0 -1.610456,-0.949825 -2.546261,-2.110769 z M 24.056971,59.173719 c -1.01394,-0.279809 -2.823723,-1.371591 -4.021798,-2.426124 -5.782541,-5.090001 -4.46744,-14.034617 2.58832,-17.604556 2.712269,-1.372238 7.867792,-0.882249 10.543105,1.002033 3.165009,2.22926 4.523579,5.157048 4.304248,9.27587 -0.145477,2.733152 -0.445817,3.713774 -1.674337,5.463254 -2.570252,3.660804 -7.49612,5.460673 -11.739538,4.289523 z"
       id="path21"
       inkscape:connector-curvature="0" />
  </g>
</svg>
